<?xml version="1.0" encoding="utf-8"?>
<!-- Generator: Adobe Illustrator 23.0.2, SVG Export Plug-In . SVG Version: 6.00 Build 0)  -->
<svg version="1.1" id="Ebene_1" xmlns="http://www.w3.org/2000/svg" xmlns:xlink="http://www.w3.org/1999/xlink" x="0px" y="0px"
	 viewBox="0 0 93.3 17" style="enable-background:new 0 0 93.3 17;" xml:space="preserve">
<style type="text/css">
	.st0{fill:#009FE3;}
	.st1{fill:#FFFFFF;}
</style>
<g>
	<path class="st0" d="M55.9,11.5v1.7h-1.7v-1.7H55.9z"/>
	<rect x="68.8" y="3.9" class="st0" width="8.6" height="1.7"/>
	<rect x="68.8" y="11.4" class="st0" width="8.6" height="1.7"/>
	<rect x="68.8" y="7.7" class="st0" width="7.9" height="1.7"/>
	<path class="st0" d="M57.3,3.9h7.5c0.5,0,0.9,0.2,1.3,0.5c0.4,0.3,0.5,0.8,0.5,1.3v5.7c0,0.5-0.2,0.9-0.5,1.3
		c-0.4,0.3-0.8,0.5-1.3,0.5h-7.5V3.9z M64.9,11.3V5.6c0-0.1,0-0.1-0.1-0.1h-5.7c-0.1,0-0.1,0-0.1,0.1v5.7c0,0.1,0,0.1,0.1,0.1
		L64.9,11.3C64.9,11.4,64.9,11.4,64.9,11.3z"/>
	<path class="st0" d="M84.5,11.1l4.1-7.2h2l-5.4,9.3h-1.5l-5.4-9.3h2L84.5,11.1z"/>
</g>
<g>
	<path class="st1" d="M10.7,13.2h-0.5L8.2,6C8,5.4,7.9,5,7.8,4.6C7.7,4.9,7.6,5.4,7.5,5.8c-0.1,0.5-0.8,2.9-2,7.3H4.9L2.3,3.9H3
		l1.6,6c0.1,0.2,0.1,0.5,0.2,0.7S4.9,11,5,11.1c0,0.2,0.1,0.4,0.1,0.5c0,0.2,0.1,0.3,0.1,0.5c0.1-0.6,0.3-1.4,0.6-2.6l1.6-5.6h0.7
		l1.9,6.5c0.2,0.7,0.4,1.3,0.5,1.8c0.1-0.3,0.1-0.6,0.2-1c0.1-0.3,0.7-2.8,2-7.3h0.7L10.7,13.2z"/>
	<path class="st1" d="M20,13.2h-5.1V3.9H20v0.6h-4.4V8h4.2v0.6h-4.2v4H20V13.2z"/>
	<path class="st1" d="M22.1,13.2V3.9h0.6v9.3H22.1z"/>
	<path class="st1" d="M30.5,10.8c0,0.8-0.3,1.4-0.9,1.8c-0.6,0.5-1.3,0.7-2.3,0.7c-1.1,0-2-0.1-2.6-0.4v-0.6
		c0.7,0.3,1.5,0.4,2.6,0.4c0.8,0,1.4-0.2,1.8-0.5c0.4-0.3,0.7-0.8,0.7-1.4c0-0.4-0.1-0.6-0.2-0.9c-0.1-0.2-0.4-0.4-0.7-0.6
		S28,8.9,27.4,8.7c-0.9-0.3-1.6-0.7-2-1.1c-0.4-0.4-0.5-0.9-0.5-1.5c0-0.7,0.3-1.3,0.8-1.7c0.5-0.4,1.2-0.7,2.1-0.7
		c0.9,0,1.7,0.2,2.5,0.5L30,4.8c-0.8-0.3-1.5-0.5-2.2-0.5c-0.7,0-1.2,0.2-1.6,0.5s-0.6,0.7-0.6,1.3c0,0.3,0.1,0.6,0.2,0.8
		s0.3,0.4,0.6,0.6c0.3,0.2,0.8,0.4,1.5,0.6c0.7,0.2,1.3,0.5,1.6,0.7c0.4,0.2,0.6,0.5,0.8,0.8C30.4,10,30.5,10.4,30.5,10.8z"/>
	<path class="st1" d="M37.6,10.8c0,0.8-0.3,1.4-0.9,1.8c-0.6,0.5-1.3,0.7-2.3,0.7c-1.1,0-2-0.1-2.6-0.4v-0.6
		c0.7,0.3,1.5,0.4,2.6,0.4c0.8,0,1.4-0.2,1.8-0.5c0.4-0.3,0.7-0.8,0.7-1.4c0-0.4-0.1-0.6-0.2-0.9c-0.1-0.2-0.4-0.4-0.7-0.6
		s-0.8-0.4-1.5-0.6c-0.9-0.3-1.6-0.7-2-1.1C32.2,7.3,32,6.8,32,6.1c0-0.7,0.3-1.3,0.8-1.7C33.3,4,34,3.8,34.9,3.8
		c0.9,0,1.7,0.2,2.5,0.5l-0.2,0.6c-0.8-0.3-1.5-0.5-2.2-0.5c-0.7,0-1.2,0.2-1.6,0.5s-0.6,0.7-0.6,1.3c0,0.3,0.1,0.6,0.2,0.8
		s0.3,0.4,0.6,0.6c0.3,0.2,0.8,0.4,1.5,0.6c0.7,0.2,1.3,0.5,1.6,0.7c0.4,0.2,0.6,0.5,0.8,0.8C37.5,10,37.6,10.4,37.6,10.8z"/>
	<path class="st1" d="M44.6,13.2h-5.1V3.9h5.1v0.6h-4.4V8h4.2v0.6h-4.2v4h4.4V13.2z"/>
	<path class="st1" d="M47.4,9.1v4h-0.6V3.9h2.2c1.2,0,2,0.2,2.6,0.6C52,5,52.3,5.6,52.3,6.5c0,0.6-0.2,1.1-0.5,1.6S51,8.8,50.3,9
		l2.5,4.2h-0.8l-2.4-4H47.4z M47.4,8.6h1.8c0.8,0,1.4-0.2,1.8-0.5c0.4-0.3,0.6-0.9,0.6-1.5c0-0.7-0.2-1.2-0.6-1.5
		c-0.4-0.3-1.1-0.5-2.1-0.5h-1.5V8.6z"/>
</g>
</svg>
