<?xml version="1.0" encoding="utf-8"?>
<!-- Generator: Adobe Illustrator 21.1.0, SVG Export Plug-In . SVG Version: 6.00 Build 0)  -->
<svg version="1.1" id="Ebene_1" xmlns="http://www.w3.org/2000/svg" xmlns:xlink="http://www.w3.org/1999/xlink" x="0px" y="0px"
	 width="85px" height="42.5px" viewBox="0 0 85 42.5" style="enable-background:new 0 0 85 42.5;" xml:space="preserve">
<style type="text/css">
	.st0{fill:#FFFFFF;}
	.st1{fill:#009FE3;}
</style>
<g>
	<g>
		<path class="st0" d="M32,8.1L40.1,0l1,1L34,8.1l2.9,2.9l5.7-5.7l1,1l-5.7,5.7l3.9,3.9l-1,1L32,8.1z"/>
	</g>
	<g>
		<path class="st0" d="M53.1,8.9L45,17l-1-1l7.1-7.1L48.1,6l-5.7,5.7l-1-1l5.7-5.7L43.2,1l1-1L53.1,8.9z"/>
	</g>
</g>
<g>
	<g>
		<path class="st0" d="M11,38.5h-0.5l-2-7.2c-0.2-0.6-0.3-1.1-0.4-1.5c-0.1,0.4-0.2,0.8-0.3,1.3S6.9,34,5.7,38.5H5.2l-2.6-9.3h0.7
			l1.6,6C5,35.4,5,35.6,5.1,35.8c0.1,0.2,0.1,0.4,0.1,0.6c0,0.2,0.1,0.4,0.1,0.5s0.1,0.3,0.1,0.5c0.1-0.6,0.3-1.5,0.7-2.6l1.6-5.7
			h0.7l1.9,6.5c0.2,0.7,0.4,1.4,0.5,1.8c0.1-0.3,0.1-0.6,0.2-1c0.1-0.3,0.7-2.8,2-7.3h0.7L11,38.5z"/>
		<path class="st0" d="M22,38.5h-0.7v-4.6h-5.4v4.6h-0.7v-9.3h0.7v4.1h5.4v-4.1H22V38.5z"/>
		<path class="st0" d="M24.6,38.5v-9.3h0.7v9.3H24.6z"/>
		<path class="st0" d="M30.4,38.5h-0.7v-8.7h-3v-0.6h6.7v0.6h-3V38.5z"/>
	</g>
	<g>
		<path class="st1" d="M48.9,36.8v1.7h-1.7v-1.7H48.9z"/>
		<path class="st1" d="M59.3,30.9h-7.5c-0.1,0-0.1,0-0.1,0.1v5.7c0,0.1,0,0.1,0.1,0.1h7.5v1.7h-7.5c-0.5,0-0.9-0.2-1.3-0.5
			c-0.3-0.3-0.5-0.8-0.5-1.3V31c0-0.5,0.2-0.9,0.5-1.3c0.3-0.3,0.8-0.5,1.3-0.5h7.5V30.9z"/>
		<path class="st1" d="M62.4,29.2h5.7c0.5,0,0.9,0.2,1.3,0.5c0.4,0.3,0.5,0.8,0.5,1.3v5.7c0,0.5-0.2,0.9-0.5,1.3
			c-0.4,0.3-0.8,0.5-1.3,0.5h-5.7c-0.5,0-0.9-0.2-1.3-0.5c-0.3-0.3-0.5-0.8-0.5-1.3V31c0-0.5,0.2-0.9,0.5-1.3
			C61.5,29.4,61.9,29.2,62.4,29.2z M62.4,36.8h5.7c0.1,0,0.1,0,0.1-0.1V31c0-0.1,0-0.1-0.1-0.1h-5.7c-0.1,0-0.1,0-0.1,0.1L62.4,36.8
			C62.3,36.8,62.4,36.8,62.4,36.8z"/>
		<path class="st1" d="M76.6,33.2l3.4-4h1.9v9.3h-1.7v-6.8l-3.5,4.2L73,31.6v6.8h-1.7v-9.3h1.9L76.6,33.2z"/>
		<path class="st1" d="M66.1,33v1.7h-1.7V33H66.1z"/>
		<rect x="37.3" y="29.2" class="st1" width="8.6" height="1.7"/>
		<rect x="37.3" y="36.7" class="st1" width="8.6" height="1.7"/>
		<rect x="33.4" y="33" class="st1" width="11.8" height="1.7"/>
	</g>
</g>
</svg>
