<?xml version="1.0" ?><svg height="200" id="svg2" version="1.1" width="200" xmlns="http://www.w3.org/2000/svg" xmlns:cc="http://creativecommons.org/ns#" xmlns:dc="http://purl.org/dc/elements/1.1/" xmlns:inkscape="http://www.inkscape.org/namespaces/inkscape" xmlns:rdf="http://www.w3.org/1999/02/22-rdf-syntax-ns#" xmlns:sodipodi="http://sodipodi.sourceforge.net/DTD/sodipodi-0.dtd" xmlns:svg="http://www.w3.org/2000/svg"><defs id="defs4"/><g id="layer1" style="display:inline" transform="translate(0,-852.36218)"><path d="M 100 10 C 50.294373 10 10 50.29437 10 100 C 10 149.70562 50.294373 190 100 190 C 100.75044 190 101.47964 189.916 102.21875 189.875 C 102.47878 189.861 102.73968 189.85675 103 189.84375 C 103.93792 189.7973 104.87645 189.74756 105.8125 189.6875 C 112.38024 189.26605 118.74383 188.07939 124.84375 186.3125 C 130.51682 184.66925 135.96208 182.53052 141.125 179.875 C 159.21425 170.57091 173.56721 155.26453 181.90625 136.65625 C 181.96935 136.51539 182.06257 136.39124 182.125 136.25 C 183.82639 132.40089 185.3428 128.45478 186.5 124.34375 C 187.4004 121.14502 188.17308 117.89634 188.71875 114.5625 C 189.31774 110.9029 189.67507 107.16509 189.84375 103.375 C 189.89375 102.25049 190 101.13693 190 100 C 190 96.34978 189.70363 92.78648 189.28125 89.25 C 189.19555 88.53225 189.03998 87.83748 188.9375 87.125 C 182.66932 43.54493 145.31458 10 100 10 z " id="path5955" style="fill:#f57c00;fill-opacity:1;stroke:none" transform="translate(0,852.36218)"/></g><g id="layer9"/><g id="layer8" style="display:inline"><path d="m 67.727,149.92382 c -8.0299,-0.58584 -13.8551,-7.99467 -12.5058,-15.9059 0.8986,-5.26905 4.8282,-9.58013 9.9624,-10.92938 1.4284,-0.37541 2.2431,-0.46545 3.855,-0.42606 1.6389,0.0401 2.4914,0.18042 3.895,0.64132 2.0318,0.66719 3.6721,1.66167 5.2436,3.17919 2.1668,2.09229 3.5024,4.64034 4.045199,7.71779 0.1295,0.73387 0.129301,3.43702 0,4.1692 -0.4329,2.44656 -1.403,4.64147 -2.8448,6.43665 -0.5137,0.63956 -1.6146,1.72984 -2.2542,2.23234 -2.650099,2.0823 -6.0574,3.12844 -9.3961,2.88485 z m 34.1308,-1.18571 c -0.2843,-7.34059 -1.8287,-13.50762 -4.941,-19.73054 -5.5848,-11.16648 -15.5382,-19.75373 -27.3246,-23.57403 -4.3621,-1.41386 -8.4723,-2.13117 -13.129,-2.29129 L 55,103.09195 l 0,-9.686453 0,-9.68646 1.408,0.0456 c 2.6661,0.0863 4.5128,0.2257 6.8938,0.52038 12.4659,1.54276 24.4008,6.74452 34.1216,14.871673 3.5639,2.97966 6.9694,6.49938 9.8097,10.13865 8.8511,11.3412 13.7234,25.15013 13.9814,39.62565 l 0.019,1.07887 -9.6635,0 -9.6635,0 -0.049,-1.26173 z m 33.1607,0.40229 c -10e-4,-1.18275 -0.1259,-3.86955 -0.2576,-5.54064 C 133.501,127.60857 127.5135,112.52464 117.4274,99.93292 105.4378,84.964817 88.3843,74.750977 69.6288,71.304997 c -4.4001,-0.80842 -9.6746,-1.32396 -13.5499,-1.32435 l -1.0789,0 0,-9.99035 0,-9.99035 1.664,0.0461 c 4.416,0.12222 7.8054,0.37453 11.4287,0.85078 16.9096,2.22255 32.9244,8.73942 46.6336,18.9765 11.1199,8.30355 20.3362,18.74813 27.2481,30.879553 8.0745,14.17206 12.62,30.63327 12.917,46.77852 l 0.045,2.4686 -9.9588,0 -9.9587,0 -7e-4,-0.85944 z" id="path5950" style="fill:#ececec;fill-opacity:1;stroke:none"/><path d="M 99,9.9999995 C 49.29437,9.9999995 9.000001,50.294369 9.000001,99.999998 9.000001,149.70566 49.294371,190 99,190 L 99,9.9999995 z" id="rect2995" style="opacity:0.15;fill:#ffffff;fill-opacity:1;fill-rule:nonzero;stroke:none;display:inline"/></g></svg>