<?xml version="1.0" encoding="utf-8"?>
<!-- Generator: Adobe Illustrator 23.0.2, SVG Export Plug-In . SVG Version: 6.00 Build 0)  -->
<svg version="1.1" id="Ebene_1" xmlns="http://www.w3.org/2000/svg" xmlns:xlink="http://www.w3.org/1999/xlink" x="0px" y="0px"
	 viewBox="0 0 93.3 17" style="enable-background:new 0 0 93.3 17;" xml:space="preserve">
<style type="text/css">
	.st0{fill:#3C3C3B;}
	.st1{fill:#FFFFFF;}
</style>
<g>
	<g>
		<path class="st0" d="M11,13h-0.5l-2-7.2C8.3,5.2,8.1,4.7,8,4.3C8,4.7,7.9,5.1,7.8,5.6S6.9,8.5,5.7,13H5.1L2.6,3.7h0.7l1.6,6
			C5,9.9,5,10.1,5.1,10.3c0.1,0.2,0.1,0.4,0.1,0.6c0,0.2,0.1,0.4,0.1,0.5s0.1,0.3,0.1,0.5c0.1-0.6,0.3-1.5,0.7-2.6l1.6-5.7h0.7
			l1.9,6.5c0.2,0.7,0.4,1.4,0.5,1.8c0.1-0.3,0.1-0.6,0.2-1c0.1-0.3,0.7-2.8,2-7.3h0.7L11,13z"/>
		<path class="st0" d="M22,13h-0.7V8.4h-5.4V13h-0.7V3.7h0.7v4.1h5.4V3.7H22V13z"/>
		<path class="st0" d="M24.6,13V3.7h0.7V13H24.6z"/>
		<path class="st0" d="M30.3,13h-0.7V4.3h-3V3.7h6.7v0.6h-3V13z"/>
	</g>
	<g>
		<path class="st1" d="M48.9,11.3V13h-1.7v-1.7H48.9z"/>
		<rect x="37.3" y="3.7" class="st1" width="8.6" height="1.7"/>
		<rect x="37.3" y="11.2" class="st1" width="8.6" height="1.7"/>
		<rect x="33.4" y="7.5" class="st1" width="11.8" height="1.7"/>
	</g>
</g>
<g>
	<path class="st1" d="M49,3.7h9.4v1.7h-3.8V13h-1.7V5.4H49V3.7z"/>
	<path class="st1" d="M68,3.7v1.7h-6.9v2.1h5.5v1.7h-5.5v2.1H68V13h-8.6V3.7H68z"/>
	<path class="st1" d="M78.7,5.4h-7.5c-0.1,0-0.1,0-0.1,0.1v5.7c0,0.1,0,0.1,0.1,0.1h7.5V13h-7.5c-0.5,0-0.9-0.2-1.3-0.5
		c-0.4-0.4-0.5-0.8-0.5-1.3V5.5c0-0.5,0.2-0.9,0.5-1.3c0.4-0.4,0.8-0.5,1.3-0.5h7.5V5.4z"/>
	<path class="st1" d="M87.9,3.7h1.7V13h-1.7V9.2h-6.1V13H80V3.7h1.7v3.8h6.1V3.7z"/>
</g>
</svg>
